<?xml version="1.0" standalone="no"?>
<!DOCTYPE svg PUBLIC "-//W3C//DTD SVG 20010904//EN"
 "http://www.w3.org/TR/2001/REC-SVG-20010904/DTD/svg10.dtd">
<svg version="1.0" xmlns="http://www.w3.org/2000/svg"
 width="700.000000pt" height="700.000000pt" viewBox="0 0 700.000000 700.000000"
 preserveAspectRatio="xMidYMid meet">
<metadata>
Created by potrace 1.14, written by Peter Selinger 2001-2017
</metadata>
<g transform="translate(0.000000,700.000000) scale(0.100000,-0.100000)"
fill="#000000" stroke="none">
<path d="M2179 6939 c-12 -34 -23 -80 -23 -103 -1 -37 2 -43 33 -58 l34 -17
-24 -9 c-158 -61 -215 -86 -344 -152 -253 -128 -426 -244 -569 -380 -102 -98
-160 -173 -218 -288 -57 -111 -61 -146 -18 -187 22 -21 30 -38 30 -63 0 -47
11 -63 83 -120 149 -119 300 -178 529 -207 l47 -6 -71 -107 c-38 -59 -107
-183 -154 -277 -110 -224 -297 -705 -274 -705 7 0 35 65 170 395 179 436 317
652 582 911 79 76 186 169 238 207 120 85 260 157 306 157 24 0 42 8 58 25 25
27 105 52 197 62 53 5 56 4 62 -18 12 -43 7 -169 -7 -203 -16 -38 -60 -76 -88
-76 -31 0 -31 -26 -2 -81 37 -68 86 -121 154 -167 40 -28 58 -48 69 -78 61
-171 136 -347 153 -358 10 -8 28 -12 38 -9 38 10 43 53 36 264 l-7 199 32 47
c47 67 69 133 71 215 l3 73 -37 -3 c-69 -6 -104 21 -147 112 -59 122 -59 117
7 149 31 15 82 34 112 42 51 13 56 13 75 -5 12 -11 29 -20 38 -20 27 0 110 31
140 52 25 18 38 19 130 13 149 -10 284 -38 468 -99 194 -63 266 -92 373 -153
102 -58 341 -236 531 -396 83 -70 157 -127 166 -127 9 0 36 -15 60 -33 189
-142 413 -214 639 -204 78 3 134 12 175 25 33 11 61 19 63 17 6 -6 -75 -169
-102 -205 -46 -61 -137 -148 -187 -181 -62 -40 -178 -80 -249 -86 l-55 -5 -65
78 c-36 44 -75 91 -85 106 -11 15 -24 28 -29 28 -10 0 26 -49 118 -160 92
-110 98 -116 179 -184 129 -108 385 -255 517 -297 69 -22 35 -24 -75 -5 -102
18 -195 42 -264 67 -29 11 -55 18 -58 16 -6 -7 111 -47 210 -72 51 -12 136
-29 190 -35 53 -7 97 -15 97 -18 0 -3 -20 -38 -45 -78 l-46 -73 -57 44 c-71
54 -101 61 -280 69 l-143 7 -30 -32 -30 -32 -77 22 c-106 30 -259 107 -367
183 -107 76 -105 72 -107 283 -1 158 14 244 61 350 22 50 22 51 -56 83 -134
54 -306 200 -442 376 -43 55 -85 107 -94 115 -22 17 -22 14 -1 -109 9 -52 16
-144 16 -205 0 -93 -4 -122 -26 -184 -34 -97 -65 -148 -120 -199 -25 -23 -46
-46 -46 -51 0 -9 28 -21 100 -42 88 -25 166 -66 223 -119 96 -88 258 -307 271
-366 11 -49 89 -174 142 -227 49 -50 201 -161 287 -211 27 -16 49 -37 52 -49
11 -53 14 -59 12 -24 -2 20 -1 37 1 37 16 0 113 -33 127 -44 18 -13 17 -15
-13 -30 -18 -9 -52 -17 -75 -16 -91 2 -240 -44 -262 -80 -9 -15 0 -12 37 9 48
28 146 51 220 51 70 0 153 33 153 61 0 9 -31 25 -80 42 -146 50 -163 58 -247
114 -115 77 -230 183 -278 256 -41 64 -62 128 -42 135 7 2 6 16 -4 44 -19 55
-18 98 2 98 9 0 48 -24 88 -54 155 -117 235 -160 436 -237 47 -17 87 -36 88
-41 2 -4 26 10 54 33 l49 42 67 -11 c37 -6 103 -10 147 -10 94 2 118 -8 188
-80 l49 -49 -40 -79 c-36 -72 -102 -243 -102 -265 0 -5 9 -18 20 -29 20 -20
20 -22 3 -86 -14 -51 -23 -68 -41 -75 -44 -17 -105 -9 -211 27 -112 39 -111
39 -325 18 -85 -8 -166 8 -206 43 -36 30 -41 12 -5 -21 32 -30 89 -46 163 -46
l60 0 7 -87 c9 -132 14 -141 11 -22 l-3 107 36 6 c87 14 169 7 244 -23 41 -16
89 -32 108 -36 28 -5 39 -15 59 -52 24 -45 24 -47 6 -57 -43 -24 -52 -44 -70
-141 -23 -126 -19 -242 9 -281 12 -16 82 -57 178 -106 176 -89 167 -79 192
-210 29 -159 36 -275 19 -358 -31 -150 -164 -435 -204 -435 -11 0 -15 -10 -14
-35 1 -32 -5 -100 -35 -395 -13 -128 -59 -311 -106 -419 -33 -76 -35 -87 -22
-101 43 -42 48 -189 10 -289 -17 -47 -17 -49 1 -60 10 -6 29 -19 43 -30 22
-17 23 -20 10 -34 -13 -13 -19 -11 -49 11 l-33 26 -48 -55 c-51 -57 -89 -82
-146 -95 -27 -6 -45 -2 -82 17 -76 38 -104 96 -88 180 7 35 6 50 -3 56 -10 6
-9 8 3 8 13 0 17 -14 21 -64 9 -102 55 -166 121 -166 54 1 128 53 170 120 l17
26 -65 33 c-36 18 -65 36 -65 41 0 20 20 17 80 -11 74 -35 72 -36 96 69 17 76
14 153 -7 178 -6 7 -8 19 -4 26 4 7 -5 0 -20 -17 -84 -95 -139 -144 -190 -169
-81 -39 -152 -59 -191 -52 -19 4 -35 2 -39 -4 -4 -6 -32 -23 -64 -39 -62 -32
-147 -51 -222 -51 -98 0 -261 69 -364 154 -42 34 -47 37 -33 14 l18 -27 -58
-44 c-218 -167 -594 -358 -807 -411 -101 -25 -274 -55 -390 -67 -276 -29 -597
27 -860 151 -47 22 -103 40 -135 43 l-55 7 55 -26 c277 -127 507 -191 728
-201 72 -3 132 -9 132 -12 0 -3 -21 -18 -45 -33 -37 -23 -45 -32 -45 -58 0
-16 4 -30 9 -30 4 0 6 11 4 24 -4 19 5 30 47 61 47 35 59 39 143 46 51 5 133
16 182 25 50 10 117 20 150 24 33 4 56 8 50 9 -5 1 35 15 90 31 214 61 439
174 687 342 l147 100 33 -25 c51 -39 152 -86 221 -103 125 -33 287 -8 378 57
34 24 36 16 14 -57 -8 -27 -15 -64 -15 -83 0 -76 54 -236 123 -366 l43 -80
688 -3 c667 -2 688 -2 665 16 -13 10 -60 43 -105 74 -66 46 -82 53 -90 41 -12
-19 -44 -7 -44 17 0 10 6 20 13 23 6 2 10 6 7 8 -3 3 -32 27 -65 54 -81 66
-273 262 -280 286 -4 11 -11 17 -16 14 -5 -4 -9 -1 -9 4 0 6 -7 11 -15 11 -28
0 -91 48 -107 80 l-16 32 -36 -76 c-55 -113 -125 -157 -162 -101 -21 33 -28
144 -12 198 l12 42 7 -45 c4 -25 8 -68 8 -97 2 -95 20 -106 74 -42 36 41 78
138 81 183 0 15 4 26 8 26 3 0 23 -24 44 -52 21 -29 54 -69 74 -89 19 -20 41
-44 49 -54 136 -172 346 -345 569 -468 72 -40 82 -43 82 -26 0 13 -17 28 -51
47 -104 56 -257 162 -341 236 -157 137 -370 365 -468 502 -26 37 -28 44 -13
44 90 -2 275 -20 290 -29 11 -5 47 -12 79 -15 33 -3 94 -10 137 -16 62 -10 88
-9 123 0 24 7 44 16 44 21 0 5 7 5 17 2 11 -4 14 -3 9 5 -5 8 1 10 21 7 20 -4
45 4 88 28 52 29 60 38 63 67 l3 33 -48 -36 c-99 -72 -212 -101 -364 -93 -102
6 -146 12 -379 55 -63 11 -157 24 -208 27 -80 6 -92 9 -86 23 25 56 94 321
103 396 31 259 41 347 41 376 0 20 15 53 41 93 61 91 114 210 150 332 28 99
31 122 32 259 1 109 -4 170 -16 224 -10 41 -16 76 -14 77 2 2 40 -21 85 -52
71 -49 242 -214 242 -234 0 -4 -31 -19 -69 -35 -63 -25 -73 -26 -120 -16 -29
6 -61 11 -72 11 -38 0 -9 -17 50 -30 57 -12 62 -11 142 19 91 35 83 37 123
-39 58 -111 123 -388 125 -537 1 -43 5 -55 27 -72 53 -42 131 3 180 104 34 69
34 70 34 217 0 136 -1 147 -17 141 -31 -12 -38 -26 -52 -98 -17 -92 -54 -221
-76 -267 -10 -20 -27 -39 -39 -42 -11 -3 -21 -4 -22 -3 -1 1 -10 56 -19 122
-9 66 -25 157 -36 202 -23 95 -89 269 -124 328 -22 38 -125 145 -190 198 -65
53 -207 138 -363 217 -98 50 -170 93 -179 107 -13 19 -14 41 -9 116 14 186 41
269 83 253 7 -3 13 0 13 6 0 6 3 8 6 5 4 -4 2 -13 -5 -21 -9 -11 -5 -18 21
-35 18 -11 30 -21 25 -21 -4 0 -25 12 -47 26 -38 25 -60 28 -46 6 12 -20 159
-73 222 -81 83 -10 123 6 154 62 28 48 23 121 -10 188 -33 63 -119 141 -199
179 -68 33 -70 35 -64 64 31 161 254 581 345 649 43 32 117 33 232 3 106 -28
275 -43 349 -32 37 6 47 11 47 26 0 17 -5 19 -47 14 -27 -3 -52 -7 -58 -9 -24
-6 -218 15 -309 34 -55 12 -112 21 -128 21 -45 0 -105 -36 -146 -89 -34 -45
-40 -48 -72 -43 -87 13 -297 112 -445 209 -90 60 -230 172 -222 179 2 2 39 13
81 24 181 46 311 160 410 357 34 67 73 190 63 199 -2 2 -30 -9 -63 -26 -168
-85 -452 -57 -709 69 -102 51 -144 79 -284 195 -254 212 -477 378 -570 426
-23 11 -41 22 -41 24 0 2 22 18 48 35 56 36 195 176 239 241 46 69 93 166 93
195 0 15 -5 35 -11 46 -8 15 -6 32 5 67 16 45 16 47 -6 78 -47 65 -159 149
-276 208 -234 118 -547 175 -986 182 -220 4 -262 2 -276 -11 -9 -8 -31 -18
-48 -21 -25 -5 -32 -3 -32 9 0 23 -18 30 -35 14 -8 -9 -20 -17 -27 -19 -9 -3
-8 -22 6 -79 35 -142 30 -329 -10 -329 -32 0 -83 31 -164 102 l-85 74 -17 74
c-20 95 -21 122 -4 145 13 17 14 17 48 -8 46 -35 135 -42 174 -12 18 14 18 15
-11 39 -39 33 -67 35 -37 3 12 -13 22 -26 22 -30 0 -4 -25 -7 -55 -7 -46 0
-59 4 -88 30 -42 37 -60 38 -75 5 -16 -35 -15 -52 10 -172 17 -84 26 -106 44
-116 35 -19 149 -120 147 -129 -2 -4 9 -8 25 -8 15 0 37 -6 48 -14 11 -8 29
-16 41 -18 16 -2 36 -33 80 -118 54 -106 62 -117 111 -146 29 -17 71 -34 93
-37 23 -3 43 -8 46 -11 18 -18 -86 -76 -136 -76 -23 0 -38 12 -84 73 -65 84
-160 150 -212 145 l-30 -3 1 -110 c2 -125 36 -275 79 -349 30 -51 93 -90 136
-84 16 3 32 1 35 -4 13 -21 -10 -80 -55 -141 -27 -36 -52 -75 -56 -86 -3 -12
-1 -129 6 -260 10 -211 10 -242 -4 -255 -11 -12 -18 -13 -31 -3 -14 11 -95
204 -126 302 -7 22 -26 72 -42 111 -28 70 -31 73 -95 105 -36 19 -79 47 -94
62 -33 32 -38 67 -11 67 22 1 54 27 77 63 43 67 37 198 -17 372 -37 123 -53
155 -77 155 -51 0 -122 -101 -151 -213 -27 -108 -31 -114 -89 -122 -51 -7
-121 8 -121 26 0 5 18 18 40 29 26 13 53 40 77 76 37 55 37 57 41 175 l4 119
52 47 c28 27 51 50 51 53 2 14 89 176 98 182 12 7 -16 180 -38 234 -14 34 -69
79 -85 69 -5 -3 -10 -17 -10 -30 0 -33 -44 -81 -86 -95 -43 -14 -48 -11 -34
24 14 37 13 79 -2 94 -15 15 -68 16 -68 2 0 -6 -10 -8 -22 -5 -14 3 -36 -3
-55 -14 -33 -21 -93 -95 -93 -115 0 -6 6 -2 12 9 17 32 71 85 100 101 38 20
45 17 20 -8 -27 -29 -42 -70 -42 -114 0 -33 -1 -34 -40 -34 -27 0 -43 5 -46
15 -6 14 -8 14 -18 0 -9 -13 -17 -14 -43 -5 -17 6 -34 19 -37 27 -7 18 18 111
40 155 12 24 12 28 0 28 -8 0 -23 -26 -37 -61z m1593 31 c480 -33 829 -152
1006 -344 46 -50 49 -61 27 -93 -15 -22 -16 -21 -98 40 -139 105 -286 170
-502 223 -114 27 -132 29 -137 12 -2 -7 -23 -51 -47 -98 l-44 -85 -29 90 c-34
109 -34 115 -5 116 73 4 -100 20 -283 25 -181 6 -386 -3 -462 -19 -9 -2 -37
77 -38 105 0 7 74 16 230 27 180 12 218 12 382 1z m-1272 -59 c0 -9 -8 -33
-19 -53 -21 -43 -19 -48 23 -48 47 0 111 36 132 75 35 65 65 36 93 -89 l20
-89 -59 -117 c-38 -76 -68 -123 -86 -135 l-28 -18 -27 33 c-28 33 -92 178 -87
196 3 12 -10 79 -23 122 -8 25 -16 32 -35 32 -22 0 -24 3 -19 23 21 67 75 118
102 95 7 -6 13 -18 13 -27z m1381 -79 c21 -8 30 -25 52 -100 15 -49 27 -100
27 -113 1 -24 1 -24 16 -4 8 11 34 55 56 98 22 43 48 82 58 87 36 19 394 -93
439 -138 22 -22 23 -29 19 -105 -4 -52 -2 -71 3 -53 4 16 9 55 10 87 l2 58 49
-26 c26 -14 48 -30 48 -34 0 -10 -108 -133 -121 -137 -5 -2 -9 -8 -9 -13 0
-22 22 -4 75 61 31 39 65 70 74 70 24 0 88 -56 118 -103 32 -51 27 -81 -35
-180 -67 -108 -157 -205 -253 -270 l-82 -57 -35 22 c-19 11 -80 40 -137 62
l-103 42 58 52 c53 47 143 156 152 183 6 17 60 -13 133 -72 58 -47 73 -65 102
-119 11 -22 13 -23 13 -5 0 68 -166 201 -317 253 -238 83 -564 117 -888 93
l-160 -12 -15 23 c-8 13 -25 33 -37 45 -19 20 -20 25 -7 60 7 22 13 80 14 135
0 90 1 96 19 91 12 -3 34 -34 55 -76 20 -40 36 -66 36 -59 0 7 -16 43 -35 81
l-34 69 37 6 c20 3 58 6 83 6 l45 0 -38 -117 c-21 -64 -36 -119 -33 -121 6 -6
9 2 39 104 13 45 32 96 41 113 l16 32 212 -4 c117 -3 224 -10 238 -15z m-1457
-59 c3 -10 8 -34 11 -55 l7 -36 -59 -16 c-285 -81 -715 -299 -928 -471 -142
-115 -267 -258 -318 -362 -12 -24 -24 -43 -29 -43 -4 0 -5 -6 -2 -14 11 -28
-19 -29 -43 -2 -28 33 -27 40 28 153 114 236 382 461 784 659 172 84 368 162
439 175 27 4 54 13 60 19 16 16 44 12 50 -7z m41 -183 c21 -64 37 -93 77 -136
27 -29 28 -32 13 -60 -8 -16 -15 -41 -15 -55 0 -25 -7 -29 -108 -61 -482 -157
-903 -444 -993 -678 -24 -61 -36 -140 -23 -140 5 0 10 18 11 40 3 49 36 129
77 190 17 24 34 48 38 54 4 6 22 -1 45 -16 95 -62 267 -128 336 -128 l40 0
-69 -72 c-38 -40 -82 -90 -98 -110 -22 -30 -35 -38 -60 -38 -41 0 -237 36
-296 54 -95 29 -306 161 -330 206 -21 40 27 192 66 207 9 3 52 -13 97 -35 44
-23 83 -39 86 -36 3 3 -1 15 -9 27 -43 67 -80 146 -80 171 0 24 16 45 84 111
101 99 241 205 270 205 12 0 57 -30 101 -65 44 -36 83 -65 87 -65 3 0 2 17 -4
37 -6 21 -11 76 -12 123 l-1 85 143 71 c78 39 174 82 212 95 l69 23 27 -24
c14 -14 53 -58 86 -98 33 -40 62 -71 65 -68 3 2 -32 48 -77 101 -45 53 -81 97
-79 99 7 6 129 46 139 46 6 0 11 -37 12 -87 l1 -88 6 83 c4 58 11 86 21 92 19
12 24 6 45 -60z m1445 -154 c202 -25 410 -81 410 -110 0 -29 -100 -149 -171
-206 l-35 -29 -86 30 c-117 40 -252 66 -382 75 -86 5 -113 11 -127 25 -12 12
-33 19 -59 19 -50 0 -112 30 -138 67 -34 49 -64 115 -55 124 20 20 484 24 643
5z m-2124 -153 c6 -54 11 -99 10 -100 -1 -2 -136 105 -155 123 -3 3 6 12 20
22 36 26 103 61 108 56 2 -2 10 -48 17 -101z m1349 18 c45 -20 135 -105 135
-127 0 -8 -8 -14 -18 -14 -37 0 -172 -58 -172 -74 0 -6 -3 -7 -10 0 -5 5 -12
60 -16 122 l-7 112 24 0 c13 0 42 -9 64 -19z m-601 -88 c-4 -38 -10 -78 -15
-89 -11 -30 -68 -94 -84 -94 -19 0 -65 -39 -65 -55 0 -8 12 -20 26 -28 l26
-13 -79 -46 c-101 -59 -234 -157 -300 -221 l-52 -50 -70 12 c-116 19 -269 80
-307 122 -15 17 -15 20 0 44 48 73 343 262 547 351 116 50 340 133 362 134 16
0 17 -7 11 -67z m274 -53 c18 -51 30 -95 28 -97 -2 -2 -43 -11 -91 -18 -48 -8
-97 -17 -108 -21 -18 -6 -19 -3 -13 31 17 87 104 214 139 202 7 -2 27 -45 45
-97z m-1500 -308 c18 -29 32 -55 32 -57 0 -2 -36 15 -79 37 -71 36 -78 42 -68
59 6 10 15 15 21 12 5 -4 6 -1 2 6 -5 7 0 21 10 32 17 19 18 19 34 -8 9 -15
31 -52 48 -81z m1952 -207 c-15 -41 -49 -103 -59 -109 -12 -8 -22 20 -14 42 5
15 72 92 80 92 1 0 -2 -11 -7 -25z m-372 -88 c29 -14 48 -33 57 -54 l14 -32
-52 33 c-47 31 -90 76 -71 76 5 0 29 -11 52 -23z m1720 -129 c94 -126 250
-265 391 -349 l73 -44 -28 -12 c-16 -7 -51 -12 -79 -13 -27 0 -68 -7 -90 -15
-22 -8 -41 -15 -42 -15 -1 0 -26 46 -56 103 -30 56 -78 145 -107 197 -29 52
-65 119 -81 148 -16 28 -27 52 -24 52 2 0 22 -24 43 -52z m1538 -1826 c71 -46
109 -94 136 -169 16 -47 17 -61 7 -85 -19 -46 -50 -61 -117 -56 -75 6 -182 53
-182 80 0 56 67 268 84 268 7 0 39 -17 72 -38z m-171 -159 c-6 -27 -7 -27 -21
-9 -18 26 -18 34 4 38 24 6 25 3 17 -29z m40 -131 c-3 -3 -11 0 -18 7 -9 10
-8 11 6 5 10 -3 15 -9 12 -12z m275 -27 c-7 -8 -17 -12 -23 -8 -6 4 -8 0 -5
-9 5 -12 -5 -14 -61 -12 -36 1 -77 7 -91 13 -24 11 -24 11 5 5 50 -11 118 -4
150 15 34 20 44 19 25 -4z m-225 5 c19 -8 19 -9 -2 -9 -12 -1 -25 4 -28 9 -7
12 2 12 30 0z m5 -30 c13 -9 13 -10 0 -10 -8 0 -22 5 -30 10 -13 9 -13 10 0
10 8 0 22 -5 30 -10z m145 -28 c-3 -3 -11 0 -18 7 -9 10 -8 11 6 5 10 -3 15
-9 12 -12z m-48 2 c-3 -3 -12 -4 -19 -1 -8 3 -5 6 6 6 11 1 17 -2 13 -5z m773
-1201 c-11 -17 -11 -17 -6 0 3 10 6 24 7 30 0 9 2 9 5 0 3 -7 0 -20 -6 -30z
m44 -37 c-3 -21 -9 -35 -11 -32 -3 3 -2 21 1 42 4 20 10 34 12 31 3 -3 2 -21
-2 -41z m-64 -43 c-11 -17 -11 -17 -6 0 3 10 6 24 7 30 0 9 2 9 5 0 3 -7 0
-20 -6 -30z m-12 -65 c-2 -18 2 -33 7 -33 6 0 9 6 9 13 -1 6 2 12 7 12 15 0
10 -19 -14 -55 -22 -32 -24 -33 -35 -14 -10 16 -10 24 3 42 8 12 15 32 15 44
0 13 3 23 6 23 3 0 4 -15 2 -32z m52 22 c0 -5 -5 -10 -11 -10 -5 0 -7 5 -4 10
3 6 8 10 11 10 2 0 4 -4 4 -10z m-91 -141 c-7 -4 -17 -5 -23 -2 -5 4 -1 10 10
14 10 4 13 8 6 8 -7 1 -10 6 -6 12 4 8 10 6 17 -6 6 -12 5 -20 -4 -26z m-34
-9 c3 -6 -1 -7 -9 -4 -18 7 -21 14 -7 14 6 0 13 -4 16 -10z m-715 -1100 c0 -5
-5 -10 -11 -10 -5 0 -7 5 -4 10 3 6 8 10 11 10 2 0 4 -4 4 -10z m-10 -235 c0
-8 -7 -15 -15 -15 -16 0 -20 12 -8 23 11 12 23 8 23 -8z m290 -65 c22 -40 -26
-80 -58 -48 -25 25 -6 68 30 68 9 0 22 -9 28 -20z m-876 -10 c111 -38 151 -86
144 -174 -4 -46 -41 -126 -59 -126 -9 0 -136 258 -145 293 -3 15 -4 27 -2 27
3 0 30 -9 62 -20z m948 -55 c0 -5 -5 -11 -11 -13 -6 -2 -11 4 -11 13 0 9 5 15
11 13 6 -2 11 -8 11 -13z m-522 -116 c0 -12 -7 -19 -19 -19 -26 0 -36 17 -21
35 15 18 40 8 40 -16z"/>
<path d="M4028 6823 c7 -3 16 -2 19 1 4 3 -2 6 -13 5 -11 0 -14 -3 -6 -6z"/>
<path d="M2391 6454 c0 -11 3 -14 6 -6 3 7 2 16 -1 19 -3 4 -6 -2 -5 -13z"/>
<path d="M6886 1842 c-2 -4 -1 -14 3 -21 6 -10 10 -9 14 3 6 16 -8 32 -17 18z"/>
<path d="M4096 5411 c4 -8 30 -47 58 -86 28 -40 57 -81 64 -91 10 -16 11 -15
1 6 -7 14 -29 50 -50 80 -40 58 -86 115 -73 91z"/>
<path d="M3391 5325 c0 -5 6 -21 14 -35 8 -14 14 -20 14 -15 0 6 -6 21 -14 35
-8 14 -14 21 -14 15z"/>
<path d="M3420 5255 c0 -5 5 -17 10 -25 5 -8 10 -10 10 -5 0 6 -5 17 -10 25
-5 8 -10 11 -10 5z"/>
<path d="M3440 5205 c0 -5 5 -17 10 -25 5 -8 10 -10 10 -5 0 6 -5 17 -10 25
-5 8 -10 11 -10 5z"/>
<path d="M3615 4635 c4 -22 10 -65 15 -95 4 -30 8 -43 9 -29 0 14 4 29 7 32 9
9 50 -33 114 -113 73 -92 223 -244 297 -300 60 -45 61 -48 40 -59 -20 -10 -20
-11 8 -6 24 4 45 -5 105 -45 93 -63 248 -139 399 -196 62 -24 115 -45 116 -46
5 -6 54 -187 64 -238 22 -112 63 -418 68 -516 6 -98 5 -101 -18 -117 -13 -10
-26 -17 -29 -17 -3 0 -4 42 -4 92 l2 93 -8 -81 c-17 -186 -63 -308 -163 -429
-132 -161 -355 -313 -642 -439 -198 -87 -219 -91 -455 -89 -169 1 -231 6 -350
27 -316 54 -510 150 -625 307 -20 27 -40 47 -45 44 -4 -3 -7 1 -6 8 1 13 -66
148 -71 143 -2 -2 10 -33 27 -70 16 -38 30 -70 30 -73 0 -13 -73 8 -142 40
l-74 34 -22 129 c-13 71 -27 153 -32 183 -6 30 -10 69 -10 86 0 31 2 33 43 37
24 3 56 11 73 19 28 14 29 18 35 94 9 125 69 252 149 315 57 45 162 90 228 96
80 8 191 -17 287 -65 l80 -40 -58 54 c-59 56 -63 63 -24 44 22 -10 22 -10 2 6
-100 82 -314 114 -436 66 -31 -12 -76 -36 -100 -53 -37 -27 -51 -31 -94 -29
l-50 2 27 -27 27 -28 -35 -47 c-19 -26 -43 -68 -55 -93 -14 -32 -26 -46 -39
-46 -24 0 -24 -7 -5 99 49 271 81 410 141 619 15 49 19 54 65 74 27 12 47 23
45 25 -2 2 -21 -3 -41 -12 -21 -8 -40 -14 -42 -12 -9 10 85 277 97 277 3 0 21
-46 40 -102 19 -55 36 -105 38 -109 2 -4 -16 -14 -40 -23 -30 -11 -34 -14 -13
-11 17 3 38 8 47 11 13 4 26 -12 54 -68 120 -240 322 -456 484 -518 19 -8 69
-38 110 -67 41 -30 107 -70 146 -89 75 -36 209 -75 253 -73 22 1 21 2 -9 10
-196 53 -292 96 -413 185 -39 30 -79 54 -87 54 -8 0 -49 22 -91 48 -231 149
-435 478 -499 805 -7 32 -13 57 -15 55 -2 -2 -31 -91 -64 -198 -44 -143 -66
-200 -83 -214 -18 -15 -19 -18 -4 -13 14 6 17 3 13 -10 -48 -164 -86 -319
-123 -503 -24 -124 -49 -233 -55 -243 -5 -10 -7 -22 -4 -26 3 -5 -4 -62 -16
-127 -20 -115 -20 -123 -4 -234 36 -253 134 -681 212 -929 41 -129 51 -143
168 -216 188 -117 391 -125 493 -19 l42 44 0 -29 c0 -55 -22 -136 -53 -194
-48 -92 -131 -149 -269 -186 -173 -47 -295 -35 -469 43 -55 24 -99 42 -99 40
0 -2 33 -20 73 -40 83 -43 200 -84 235 -84 28 0 60 -31 122 -119 47 -67 121
-128 185 -155 48 -21 134 -21 163 0 33 23 27 2 -10 -33 -50 -46 -74 -55 -167
-61 -277 -15 -612 189 -843 515 -55 78 -100 129 -149 168 -86 69 -146 150
-207 277 -26 54 -52 97 -57 98 -14 0 -82 -223 -106 -350 -18 -99 -23 -100 -50
-15 -13 42 -25 73 -27 67 -6 -18 96 -311 141 -406 102 -215 260 -384 405 -434
l47 -16 -50 -14 c-30 -9 -97 -15 -170 -15 -108 -1 -127 2 -195 27 -41 15 -96
29 -121 31 -153 10 -305 106 -400 252 -38 58 -108 236 -109 276 0 9 -4 17 -9
17 -11 0 -51 -185 -58 -271 -7 -83 12 -221 38 -275 29 -62 115 -115 134 -84 3
5 -3 10 -14 10 -11 0 -35 13 -53 29 l-33 29 40 6 c113 18 151 28 183 46 21 13
39 17 46 12 32 -25 157 -64 216 -67 39 -3 92 -15 135 -32 65 -25 81 -27 216
-28 l146 0 26 -57 c34 -72 111 -156 175 -191 219 -119 534 -142 713 -51 70 35
175 143 217 222 35 65 35 64 29 238 -2 49 37 107 88 131 31 15 37 14 106 -8
149 -47 488 -32 698 31 123 37 251 129 456 330 l100 97 80 11 c44 6 81 9 83 7
7 -6 -31 -70 -67 -115 -85 -104 -226 -222 -307 -256 -21 -9 -60 -16 -86 -16
-77 0 -45 -16 47 -23 57 -5 95 -3 117 5 18 6 49 14 68 17 232 31 443 223 598
542 37 79 73 135 110 176 75 83 138 181 187 291 l42 93 6 -52 c32 -277 31
-637 -2 -713 -22 -49 -95 -162 -174 -267 l-58 -77 -45 36 c-24 20 -57 53 -74
73 -16 20 -29 31 -30 24 0 -16 82 -115 121 -144 19 -14 55 -38 82 -53 l47 -28
14 33 c8 19 38 88 66 154 86 201 92 230 97 470 3 130 -1 307 -11 466 -9 140
-16 264 -16 275 -1 32 -17 -4 -25 -56 -22 -145 -100 -326 -191 -446 -66 -87
-190 -207 -261 -253 -29 -19 -51 -36 -49 -39 5 -5 114 63 144 91 12 11 22 16
22 11 -1 -25 -106 -225 -151 -285 -114 -155 -275 -272 -409 -299 -30 -6 -69
-15 -85 -21 -17 -5 -53 -11 -80 -15 l-50 -6 65 37 c148 85 278 214 384 383 30
47 29 48 -22 26 -101 -42 -280 -56 -379 -30 -49 13 -189 84 -181 91 2 2 21 0
43 -5 61 -14 164 -12 230 6 76 19 86 30 38 39 -66 12 -170 74 -224 133 -53 57
-111 162 -124 222 l-8 35 29 -31 c51 -54 109 -77 205 -82 81 -4 91 -2 140 24
99 53 283 257 351 388 66 129 66 623 -1 1056 -31 198 -112 572 -119 551 -2 -7
1 -33 7 -58 7 -25 10 -47 7 -50 -5 -5 -147 33 -191 52 -16 7 -59 25 -95 40
-81 35 -137 66 -218 123 -62 44 -67 55 -27 66 11 3 3 3 -18 0 -33 -4 -44 1
-98 42 -148 113 -328 309 -434 470 l-46 69 6 -40z m-1342 -1524 c-4 -14 -12
-50 -18 -80 -16 -82 -34 -77 -23 6 12 101 16 113 33 107 11 -4 13 -14 8 -33z
m2597 -333 c0 -112 -16 -316 -28 -360 l-7 -28 -44 35 c-63 51 -77 53 -186 28
-29 -6 -28 -4 27 56 32 34 72 82 89 108 33 48 78 162 79 200 0 19 43 62 63 63
4 0 7 -46 7 -102z m-2498 -353 c40 -20 90 -38 111 -42 31 -5 46 -16 87 -69 28
-36 70 -78 93 -95 56 -41 188 -103 261 -124 l58 -17 -24 -24 c-18 -18 -48 -29
-127 -44 -57 -11 -109 -24 -115 -29 -12 -11 -34 -57 -78 -166 -19 -47 -29 -61
-48 -63 -42 -7 -99 17 -114 46 -32 65 -89 252 -131 437 -25 110 -48 206 -50
213 -6 17 -6 17 77 -23z m-741 -779 c78 -23 93 -32 150 -87 35 -33 77 -67 92
-76 16 -8 27 -16 25 -19 -2 -2 -66 -13 -141 -25 l-137 -22 19 -31 c10 -17 42
-70 70 -117 28 -48 66 -109 86 -135 l36 -49 -44 48 c-24 26 -72 96 -107 155
-35 59 -91 151 -125 205 -61 97 -61 98 -51 143 8 33 15 44 26 40 8 -3 54 -16
101 -30z m3763 -328 c-11 -36 -82 -186 -110 -234 -26 -44 -26 -44 -55 -29
l-29 15 44 54 c24 29 67 90 97 135 30 44 55 81 57 81 2 0 0 -10 -4 -22z
m-4389 -239 c22 -40 65 -98 95 -130 l55 -57 -55 -30 c-34 -18 -77 -32 -112
-36 l-57 -6 -17 76 c-18 84 -16 197 7 293 l13 54 16 -46 c8 -25 33 -78 55
-118z m1739 125 c20 -19 20 -54 1 -101 l-15 -36 -31 39 c-28 35 -69 105 -69
118 0 9 65 12 82 4 9 -4 24 -15 32 -24z m-386 -214 c68 -35 68 -36 31 -55 -19
-10 -61 -35 -94 -57 l-61 -40 94 -96 c149 -153 169 -190 29 -52 -132 130 -215
192 -281 212 l-39 12 81 17 c65 14 117 34 200 77 1 1 19 -7 40 -18z m-444 -65
c61 -6 66 -8 45 -19 -19 -9 -33 -28 -56 -74 -6 -13 -152 95 -161 119 -2 4 21
1 50 -6 29 -7 84 -16 122 -20z"/>
<path d="M921 1144 c0 -11 3 -14 6 -6 3 7 2 16 -1 19 -3 4 -6 -2 -5 -13z"/>
<path d="M961 1104 c0 -11 3 -14 6 -6 3 7 2 16 -1 19 -3 4 -6 -2 -5 -13z"/>
<path d="M976 1013 c-6 -14 -5 -15 5 -6 7 7 10 15 7 18 -3 3 -9 -2 -12 -12z"/>
<path d="M1044 959 c-3 -6 1 -17 10 -25 9 -8 11 -9 6 -2 -19 22 -10 31 11 12
22 -19 22 -19 8 4 -15 24 -24 27 -35 11z"/>
<path d="M1060 890 c-7 -5 0 -7 18 -6 17 1 33 3 35 6 9 8 -40 8 -53 0z"/>
<path d="M946 875 c-9 -26 -7 -32 5 -12 6 10 9 21 6 23 -2 3 -7 -2 -11 -11z"/>
<path d="M1060 860 c-9 -6 -10 -10 -3 -10 6 0 15 5 18 10 8 12 4 12 -15 0z"/>
<path d="M5620 4425 c0 -7 101 -57 106 -53 2 2 -21 16 -51 31 -30 15 -55 25
-55 22z"/>
<path d="M1186 4190 c-40 -61 -163 -200 -219 -248 -208 -178 -370 -205 -548
-91 -33 22 -62 39 -65 39 -12 0 9 -97 36 -167 43 -111 110 -211 203 -300 165
-158 354 -235 580 -236 83 0 107 -4 103 -13 -8 -20 -33 -202 -50 -354 -20
-187 -24 -272 -10 -277 8 -3 14 31 19 104 8 138 37 344 69 502 14 69 24 127
21 129 -2 2 -20 -6 -39 -17 -51 -32 -92 -42 -173 -42 -92 0 -215 32 -323 83
-68 33 -101 56 -166 122 -44 44 -94 102 -111 127 -59 86 -151 284 -139 297 3
2 18 -7 34 -20 36 -30 182 -80 237 -80 46 -1 140 35 222 83 106 64 259 223
328 342 34 59 28 72 -9 17z"/>
<path d="M4245 4109 c-16 -6 -14 -8 13 -8 33 -1 41 4 20 12 -7 2 -22 1 -33 -4z"/>
<path d="M4341 4027 c2 -1 13 -9 24 -17 19 -14 19 -14 6 3 -7 9 -18 17 -24 17
-6 0 -8 -1 -6 -3z"/>
<path d="M5731 3973 l-24 -37 23 -44 c13 -24 33 -48 44 -54 16 -8 13 -2 -10
24 -28 32 -31 40 -24 75 4 21 11 46 15 56 12 28 2 20 -24 -20z"/>
<path d="M4701 3984 c0 -11 3 -14 6 -6 3 7 2 16 -1 19 -3 4 -6 -2 -5 -13z"/>
<path d="M4430 3957 c0 -7 95 -67 106 -67 9 0 -10 14 -68 49 -21 12 -38 20
-38 18z"/>
<path d="M5510 3950 c19 -13 30 -13 30 0 0 6 -10 10 -22 10 -19 0 -20 -2 -8
-10z"/>
<path d="M5937 3945 c-11 -7 -26 -11 -35 -8 -13 3 -13 1 2 -11 11 -9 23 -16
26 -16 4 0 12 -18 19 -41 7 -23 15 -38 18 -35 3 3 0 19 -7 36 -7 16 -10 44 -6
60 3 17 4 30 3 30 -1 0 -10 -7 -20 -15z"/>
<path d="M1431 3924 c0 -11 3 -14 6 -6 3 7 2 16 -1 19 -3 4 -6 -2 -5 -13z"/>
<path d="M3646 3828 c-4 -57 -12 -129 -18 -160 -10 -56 -10 -59 31 -140 69
-139 183 -259 245 -258 15 1 9 7 -22 23 -53 28 -122 94 -161 156 -44 68 -80
162 -76 197 8 62 18 284 13 284 -3 0 -8 -46 -12 -102z"/>
<path d="M5538 3875 c11 -22 48 -58 72 -69 8 -4 4 2 -10 14 -14 11 -36 33 -48
48 -15 17 -20 20 -14 7z"/>
<path d="M928 3733 c7 -3 16 -2 19 1 4 3 -2 6 -13 5 -11 0 -14 -3 -6 -6z"/>
<path d="M808 3723 c12 -2 30 -2 40 0 9 3 -1 5 -23 4 -22 0 -30 -2 -17 -4z"/>
<path d="M5800 3696 c0 -9 59 -36 78 -36 22 0 49 27 38 38 -4 4 -12 -1 -17
-11 -12 -21 -31 -22 -69 -2 -17 9 -30 13 -30 11z"/>
<path d="M3001 3655 c16 -30 132 -165 141 -165 6 0 -11 24 -38 53 -27 28 -63
68 -79 87 -17 20 -27 31 -24 25z"/>
<path d="M4355 3503 c-27 -50 -52 -72 -106 -94 -101 -39 -206 -99 -260 -149
-59 -53 -63 -65 -9 -25 18 14 35 23 37 21 2 -2 -7 -21 -22 -41 -38 -56 -33
-72 13 -43 177 109 238 134 360 143 42 4 91 8 109 9 41 4 203 -10 226 -19 9
-4 17 -3 17 3 0 14 -25 23 -115 38 l-80 14 92 -4 93 -3 -19 25 c-18 25 -18 26
5 66 33 58 30 61 -22 21 -41 -32 -49 -34 -87 -27 -23 4 -83 7 -134 7 l-92 0 6
30 c2 17 6 36 9 43 6 21 -5 13 -21 -15z"/>
<path d="M5753 3485 c3 -11 15 -56 26 -99 20 -75 41 -126 26 -61 -18 75 -45
168 -51 174 -4 3 -4 -3 -1 -14z"/>
<path d="M2674 3426 c-200 -91 -217 -412 -32 -597 50 -50 120 -84 159 -76 19
3 18 5 -8 6 -17 0 -33 5 -35 9 -1 4 -20 18 -40 31 -21 12 -38 28 -37 34 0 7 3
7 6 -1 4 -10 13 -5 33 17 16 16 39 33 52 36 13 4 35 25 49 49 26 43 26 43 4
38 -15 -2 -30 4 -45 20 -50 53 -55 130 -11 172 29 28 58 29 91 3 35 -28 52
-116 30 -157 -9 -17 -7 -18 18 -11 30 9 77 5 103 -10 10 -5 29 -9 43 -9 25 0
26 2 26 58 0 148 -66 282 -177 359 -46 32 -61 36 -125 40 -49 2 -83 -1 -104
-11z m26 -455 c0 -6 -4 -13 -10 -16 -5 -3 -10 1 -10 9 0 9 5 16 10 16 6 0 10
-4 10 -9z"/>
<path d="M5484 3190 c0 -63 1 -89 3 -57 2 31 2 83 0 115 -2 31 -3 5 -3 -58z"/>
<path d="M4812 3215 c0 -16 2 -22 5 -12 2 9 2 23 0 30 -3 6 -5 -1 -5 -18z"/>
<path d="M6834 3056 c-124 -35 -164 -75 -164 -160 0 -49 5 -54 36 -32 20 15
44 5 44 -18 1 -33 71 -104 137 -139 66 -35 84 -54 104 -112 5 -14 7 -7 8 21 1
52 -18 75 -83 99 -87 32 -141 95 -167 199 -10 41 -9 49 7 67 34 38 96 62 172
67 52 3 72 8 72 18 0 21 -72 16 -166 -10z m-97 -63 c-17 -20 -25 -72 -14 -91
5 -6 4 -12 -2 -12 -12 0 -14 10 -12 50 2 31 21 70 34 70 6 0 3 -8 -6 -17z
m-37 -114 c0 -6 -4 -7 -10 -4 -5 3 -10 11 -10 16 0 6 5 7 10 4 6 -3 10 -11 10
-16z"/>
<path d="M5474 2955 c0 -49 1 -71 3 -48 2 23 2 64 0 90 -2 26 -3 8 -3 -42z"/>
<path d="M1403 2915 c0 -27 2 -38 4 -22 2 15 2 37 0 50 -2 12 -4 0 -4 -28z"/>
<path d="M2320 2916 c0 -20 54 -69 104 -96 23 -11 32 -14 21 -6 -49 37 -60 48
-44 43 14 -5 13 1 -5 34 -16 31 -27 39 -48 39 -18 0 -28 -5 -28 -14z"/>
<path d="M3040 2904 c-6 -14 -22 -42 -37 -62 l-27 -37 28 25 c32 28 72 100 56
100 -6 0 -15 -12 -20 -26z"/>
<path d="M2230 2911 c0 -9 16 -34 99 -151 58 -82 86 -114 55 -64 -117 193
-154 244 -154 215z"/>
<path d="M5897 2860 c3 -25 10 -54 14 -65 5 -12 6 -2 2 25 -3 25 -10 54 -14
65 -5 12 -6 2 -2 -25z"/>
<path d="M5456 2741 c-4 -57 -5 -105 -3 -108 7 -6 20 182 15 199 -3 7 -8 -34
-12 -91z"/>
<path d="M6701 2780 c32 -56 103 -129 144 -146 44 -18 52 -34 80 -163 15 -66
24 -93 24 -71 1 19 -8 72 -19 118 -25 106 -25 109 6 116 15 4 24 10 21 13 -3
3 -20 0 -37 -6 -59 -20 -150 40 -207 137 -32 54 -42 55 -12 2z"/>
<path d="M2908 2773 c7 -3 16 -2 19 1 4 3 -2 6 -13 5 -11 0 -14 -3 -6 -6z"/>
<path d="M2848 2763 c6 -2 18 -2 25 0 6 3 1 5 -13 5 -14 0 -19 -2 -12 -5z"/>
<path d="M1427 2605 c13 -231 98 -625 135 -625 11 0 12 -7 -21 91 -34 100 -75
294 -92 429 -19 165 -28 206 -22 105z"/>
<path d="M5932 2670 c0 -14 2 -19 5 -12 2 6 2 18 0 25 -3 6 -5 1 -5 -13z"/>
<path d="M3920 2671 c0 -5 13 -12 29 -16 41 -9 63 -59 64 -149 0 -58 2 -65 9
-41 10 34 3 151 -12 189 -8 22 -16 26 -50 26 -22 0 -40 -4 -40 -9z"/>
<path d="M5443 2585 c0 -22 2 -30 4 -17 2 12 2 30 0 40 -3 9 -5 -1 -4 -23z"/>
<path d="M5941 2604 c0 -11 3 -14 6 -6 3 7 2 16 -1 19 -3 4 -6 -2 -5 -13z"/>
<path d="M3356 2554 c-26 -15 -28 -18 -21 -62 8 -59 51 -155 78 -179 l21 -18
-20 30 c-31 46 -54 111 -54 154 0 30 6 44 25 59 43 34 24 44 -29 16z"/>
<path d="M5952 2545 c0 -16 2 -22 5 -12 2 9 2 23 0 30 -3 6 -5 -1 -5 -18z"/>
<path d="M5432 2510 c0 -19 2 -27 5 -17 2 9 2 25 0 35 -3 9 -5 1 -5 -18z"/>
<path d="M1161 2475 c-44 -69 -113 -233 -161 -380 -23 -71 -59 -168 -80 -215
-50 -111 -126 -334 -150 -435 -20 -87 -40 -245 -40 -322 l0 -48 -44 92 c-56
116 -119 205 -197 277 -73 68 -124 96 -162 89 -15 -3 -29 -9 -32 -13 -2 -4 2
-47 10 -96 27 -162 14 -328 -35 -458 -28 -73 -47 -92 -101 -101 -51 -8 -169
-60 -169 -75 0 -13 1 -13 62 11 44 18 143 48 157 49 2 0 -2 -7 -9 -15 -7 -8
-17 -12 -23 -8 -5 3 -7 1 -4 -4 4 -6 0 -16 -8 -23 -12 -10 -18 -10 -30 0 -8 7
-15 8 -15 2 0 -5 7 -15 15 -22 13 -11 21 -6 53 27 106 113 156 344 129 592
l-8 73 33 -23 c32 -22 32 -22 14 -1 -10 12 -27 24 -37 27 -23 7 -25 33 -4 41
71 28 262 -167 346 -352 45 -98 89 -282 89 -367 -1 -143 -47 -267 -128 -338
-43 -38 -74 -45 -116 -25 -43 20 -75 20 -105 0 -35 -25 -50 -71 -42 -126 10
-59 23 -75 74 -89 51 -14 100 6 125 51 14 25 23 30 54 30 21 0 63 -10 94 -21
77 -29 180 -131 220 -218 15 -33 34 -61 42 -61 33 0 -39 121 -124 206 -66 68
-141 105 -221 112 -59 4 -63 3 -72 -19 -5 -13 -18 -32 -30 -43 -19 -18 -22
-18 -46 -2 -19 13 -25 25 -25 55 0 56 31 91 78 89 99 -4 207 124 232 273 5 35
10 67 10 71 0 4 13 14 30 23 29 15 66 14 92 -1 7 -4 -12 20 -44 54 -67 73 -95
139 -104 250 -16 191 64 540 172 754 13 26 43 105 65 175 49 149 102 279 169
414 52 103 52 145 1 64z m-331 -1669 c0 -2 -11 -6 -25 -8 -24 -5 -25 -3 -25
40 l0 45 25 -37 c14 -20 25 -38 25 -40z"/>
<path d="M5962 2485 c0 -16 2 -22 5 -12 2 9 2 23 0 30 -3 6 -5 -1 -5 -18z"/>
<path d="M5972 2415 c0 -16 2 -22 5 -12 2 9 2 23 0 30 -3 6 -5 -1 -5 -18z"/>
<path d="M927 1778 c-18 -74 -29 -201 -24 -267 11 -125 25 -151 19 -33 -3 56
1 150 8 208 11 97 10 146 -3 92z"/>
<path d="M4835 1570 c-3 -6 1 -7 9 -4 18 7 21 14 7 14 -6 0 -13 -4 -16 -10z"/>
<path d="M2140 1426 c0 -2 8 -10 18 -17 15 -13 16 -12 3 4 -13 16 -21 21 -21
13z"/>
<path d="M4995 1238 c9 -60 43 -181 64 -231 l18 -41 -71 -67 c-100 -94 -189
-169 -202 -169 -6 0 -32 11 -58 24 -26 13 -45 19 -44 12 7 -21 93 -55 164 -66
114 -16 222 22 287 100 l27 31 31 -36 c18 -20 41 -40 53 -46 11 -6 2 7 -21 28
-48 44 -119 146 -156 225 -33 68 -71 204 -63 224 6 16 -13 54 -27 54 -5 0 -6
-19 -2 -42z m128 -345 c26 -42 27 -47 13 -69 -41 -61 -136 -104 -233 -104
l-53 0 88 79 c48 43 100 93 116 110 17 17 32 31 35 31 3 0 19 -21 34 -47z"/>
<path d="M666 573 c-4 -9 -2 -21 4 -27 8 -8 9 -6 4 8 -6 16 -4 18 11 13 15 -6
16 -5 5 8 -16 19 -16 19 -24 -2z"/>
<path d="M606 533 c-6 -14 -5 -15 5 -6 7 7 10 15 7 18 -3 3 -9 -2 -12 -12z"/>
<path d="M561 481 c-27 -25 -29 -30 -14 -35 10 -4 14 -4 10 0 -4 4 5 20 20 36
35 37 24 36 -16 -1z"/>
<path d="M605 490 c-10 -11 -16 -20 -13 -20 3 0 15 9 28 20 13 11 19 20 13 20
-5 0 -18 -9 -28 -20z"/>
<path d="M4693 433 c9 -2 25 -2 35 0 9 3 1 5 -18 5 -19 0 -27 -2 -17 -5z"/>
<path d="M4803 433 c9 -2 23 -2 30 0 6 3 -1 5 -18 5 -16 0 -22 -2 -12 -5z"/>
<path d="M4628 423 c6 -2 18 -2 25 0 6 3 1 5 -13 5 -14 0 -19 -2 -12 -5z"/>
<path d="M4588 413 c7 -3 16 -2 19 1 4 3 -2 6 -13 5 -11 0 -14 -3 -6 -6z"/>
<path d="M4874 327 c0 -89 -32 -203 -79 -285 -13 -23 -20 -42 -16 -42 13 0 78
149 95 216 16 64 22 194 9 194 -5 0 -8 -37 -9 -83z"/>
<path d="M4508 393 c7 -3 16 -2 19 1 4 3 -2 6 -13 5 -11 0 -14 -3 -6 -6z"/>
<path d="M4405 355 c-38 -20 -77 -43 -85 -52 -13 -15 -13 -15 0 -6 8 6 51 29
95 52 44 22 76 40 70 41 -5 0 -41 -16 -80 -35z"/>
<path d="M4230 233 c-64 -59 -120 -132 -120 -155 1 -7 9 3 19 22 10 19 54 69
97 112 91 91 93 104 4 21z"/>
<path d="M4605 280 c-22 -5 -51 -13 -65 -19 -24 -11 -24 -11 5 -5 44 9 147 24
168 24 13 0 17 -5 13 -17 -13 -45 -14 -74 -1 -34 8 24 12 48 9 52 -6 11 -74
10 -129 -1z"/>
<path d="M4480 240 c-8 -5 -10 -10 -5 -10 6 0 17 5 25 10 8 5 11 10 5 10 -5 0
-17 -5 -25 -10z"/>
<path d="M4424 212 c-59 -33 -106 -76 -151 -139 -25 -35 -43 -66 -40 -69 3 -3
12 8 21 24 24 47 114 140 162 168 24 14 44 28 44 30 0 6 -2 5 -36 -14z"/>
<path d="M731 217 c2 -1 13 -9 24 -17 19 -14 19 -14 6 3 -7 9 -18 17 -24 17
-6 0 -8 -1 -6 -3z"/>
<path d="M3878 173 c7 -3 16 -2 19 1 4 3 -2 6 -13 5 -11 0 -14 -3 -6 -6z"/>
<path d="M3930 162 c8 -5 26 -13 40 -16 17 -5 20 -4 10 2 -8 5 -26 13 -40 16
-17 5 -20 4 -10 -2z"/>
<path d="M2491 114 c0 -11 3 -14 6 -6 3 7 2 16 -1 19 -3 4 -6 -2 -5 -13z"/>
<path d="M4020 125 c0 -2 18 -14 40 -25 50 -25 53 -19 4 9 -36 22 -44 24 -44
16z"/>
<path d="M4660 80 c-6 -11 -8 -20 -6 -20 3 0 10 9 16 20 6 11 8 20 6 20 -3 0
-10 -9 -16 -20z"/>
<path d="M3760 46 c47 -8 107 -21 133 -31 27 -9 51 -14 54 -11 10 10 -132 46
-201 51 l-71 4 85 -13z"/>
<path d="M3525 28 c-33 -12 -55 -23 -48 -25 7 -3 38 5 70 16 32 11 69 22 83
24 18 3 15 4 -10 5 -19 0 -62 -9 -95 -20z"/>
<path d="M4630 30 c-6 -11 -8 -20 -6 -20 3 0 10 9 16 20 6 11 8 20 6 20 -3 0
-10 -9 -16 -20z"/>
<path d="M2379 23 c-13 -16 -12 -17 4 -4 16 13 21 21 13 21 -2 0 -10 -8 -17
-17z"/>
</g>
</svg>
